<mxfile host="app.diagrams.net" modified="2020-11-17T01:44:44.347Z" agent="5.0 (Windows NT 10.0; Win64; x64) AppleWebKit/537.36 (KHTML, like Gecko) Chrome/86.0.4240.198 Safari/537.36" etag="Ng-jw1BBWNT5boo94nsj" version="13.9.9" type="github">
  <diagram id="RhNwpHxtQoxcASFuceVv" name="ページ1">
    <mxGraphModel dx="2591" dy="1532" grid="1" gridSize="10" guides="1" tooltips="1" connect="1" arrows="1" fold="1" page="1" pageScale="1" pageWidth="1169" pageHeight="827" math="0" shadow="0">
      <root>
        <mxCell id="0" />
        <mxCell id="6kTqmYZwAP6JfUDktnWI-184" value="background" style="locked=1;" parent="0" />
        <mxCell id="6kTqmYZwAP6JfUDktnWI-185" value="" style="rounded=0;whiteSpace=wrap;html=1;aspect=fixed;strokeColor=none;" parent="6kTqmYZwAP6JfUDktnWI-184" vertex="1">
          <mxGeometry x="-186" y="-77" width="1570.65" height="1110" as="geometry" />
        </mxCell>
        <mxCell id="1" style="locked=1;" parent="0" />
        <mxCell id="23" value="" style="group;movable=0;resizable=0;rotatable=0;deletable=0;editable=0;connectable=0;" parent="1" vertex="1" connectable="0">
          <mxGeometry x="88" y="210" width="870" height="640" as="geometry" />
        </mxCell>
        <mxCell id="24" value="" style="rounded=0;whiteSpace=wrap;html=1;strokeWidth=3;strokeColor=#4BABC6;" parent="23" vertex="1">
          <mxGeometry x="-11" y="-32" width="878" height="670" as="geometry" />
        </mxCell>
        <mxCell id="25" value="" style="group" parent="23" vertex="1" connectable="0">
          <mxGeometry width="756" height="627" as="geometry" />
        </mxCell>
        <mxCell id="20" value="s" style="rounded=0;whiteSpace=wrap;html=1;fillColor=#FFFFFF;strokeWidth=3;strokeColor=#8064a2;" parent="25" vertex="1">
          <mxGeometry width="484" height="627" as="geometry" />
        </mxCell>
        <mxCell id="21" value="" style="rounded=0;whiteSpace=wrap;html=1;fillColor=#FFFFFF;strokeWidth=3;strokeColor=#8064a2;" parent="25" vertex="1">
          <mxGeometry x="484" y="460" width="272" height="167" as="geometry" />
        </mxCell>
        <mxCell id="22" value="" style="rounded=0;whiteSpace=wrap;html=1;fillColor=#FFFFFF;strokeWidth=3;strokeColor=none;" parent="25" vertex="1">
          <mxGeometry x="481" y="461.5" width="5" height="164" as="geometry" />
        </mxCell>
        <mxCell id="11" value="" style="rounded=0;whiteSpace=wrap;html=1;strokeColor=none;fillColor=#e6e0ec;" parent="25" vertex="1">
          <mxGeometry x="170" y="5" width="232" height="90" as="geometry" />
        </mxCell>
        <mxCell id="BV9cXCDJLeDw8SgGFLzF-201" value="" style="rounded=0;whiteSpace=wrap;html=1;strokeColor=none;fillColor=#DDFFCF;" parent="25" vertex="1">
          <mxGeometry x="5" y="253" width="307" height="137" as="geometry" />
        </mxCell>
        <mxCell id="BV9cXCDJLeDw8SgGFLzF-213" value="" style="rounded=0;whiteSpace=wrap;html=1;strokeColor=none;fillColor=#FFD3CC;" parent="25" vertex="1">
          <mxGeometry x="5" y="143" width="307" height="100" as="geometry" />
        </mxCell>
        <mxCell id="14" value="" style="rounded=0;whiteSpace=wrap;html=1;fillColor=#FFFFFF;strokeWidth=3;strokeColor=#8064a2;" parent="23" vertex="1">
          <mxGeometry x="502" width="350" height="443" as="geometry" />
        </mxCell>
        <mxCell id="4" value="" style="rounded=0;whiteSpace=wrap;html=1;strokeColor=none;fillColor=#e6e0ec;" parent="23" vertex="1">
          <mxGeometry x="598" y="5" width="230" height="90" as="geometry" />
        </mxCell>
        <mxCell id="3" value="" style="rounded=0;whiteSpace=wrap;html=1;fillColor=#FFFFFF;strokeWidth=3;strokeColor=#4BABC6;" parent="1" vertex="1">
          <mxGeometry x="77" y="60" width="274" height="110" as="geometry" />
        </mxCell>
        <mxCell id="5" value="" style="rounded=0;whiteSpace=wrap;html=1;strokeColor=none;fillColor=#fcd5b5;" parent="1" vertex="1">
          <mxGeometry x="596" y="328" width="253" height="150" as="geometry" />
        </mxCell>
        <mxCell id="6" value="" style="rounded=0;whiteSpace=wrap;html=1;strokeColor=none;fillColor=#FF9900;" parent="1" vertex="1">
          <mxGeometry x="596" y="497" width="254" height="100" as="geometry" />
        </mxCell>
        <mxCell id="7" value="" style="rounded=0;whiteSpace=wrap;html=1;strokeWidth=3;strokeColor=#4BABC6;" parent="1" vertex="1">
          <mxGeometry x="1104" y="668" width="210" height="100" as="geometry" />
        </mxCell>
        <mxCell id="8" value="" style="rounded=0;whiteSpace=wrap;html=1;strokeColor=none;fillColor=#FFFF99;" parent="1" vertex="1">
          <mxGeometry x="523" y="730" width="297" height="80" as="geometry" />
        </mxCell>
        <mxCell id="9" value="" style="rounded=0;whiteSpace=wrap;html=1;fillColor=#FFCCFF;strokeColor=none;" parent="1" vertex="1">
          <mxGeometry x="93.0000000000001" y="609" width="307" height="103" as="geometry" />
        </mxCell>
        <mxCell id="10" value="" style="rounded=0;whiteSpace=wrap;html=1;strokeColor=none;fillColor=#c6d9f1;" parent="1" vertex="1">
          <mxGeometry x="93" y="720" width="307" height="90" as="geometry" />
        </mxCell>
        <mxCell id="15" value="" style="rounded=0;whiteSpace=wrap;html=1;strokeWidth=3;strokeColor=#002060;" parent="1" vertex="1">
          <mxGeometry x="77" y="887" width="823" height="70" as="geometry" />
        </mxCell>
        <mxCell id="y5laJgX6Hfwe9KbcmbMU-190" value="" style="points=[[0.5,0,0],[1,0.5,0],[0.5,1,0],[0,0.5,0],[0.145,0.145,0],[0.8555,0.145,0],[0.855,0.8555,0],[0.145,0.855,0]];verticalLabelPosition=bottom;html=1;verticalAlign=top;aspect=fixed;align=center;pointerEvents=1;shape=mxgraph.cisco19.rect;prIcon=secure_router;strokeColor=#FFFFFF;fillColor=#E3B330;" parent="1" vertex="1">
          <mxGeometry x="228" y="893.3000000000003" width="42" height="42" as="geometry" />
        </mxCell>
        <mxCell id="y5laJgX6Hfwe9KbcmbMU-191" value="&lt;font style=&quot;font-size: 9px&quot;&gt;外部接続ルータ&lt;/font&gt;" style="text;html=1;strokeColor=none;fillColor=none;align=center;verticalAlign=middle;whiteSpace=wrap;rounded=0;" parent="1" vertex="1">
          <mxGeometry x="210.13" y="937.5499999999996" width="79.75" height="16" as="geometry" />
        </mxCell>
        <mxCell id="26" value="オブジェクト" style="" parent="0" />
        <mxCell id="BV9cXCDJLeDw8SgGFLzF-218" style="edgeStyle=orthogonalEdgeStyle;rounded=0;orthogonalLoop=1;jettySize=auto;html=1;endArrow=none;endFill=0;strokeColor=#BD331E;strokeWidth=2;" parent="26" source="BV9cXCDJLeDw8SgGFLzF-197" edge="1">
          <mxGeometry relative="1" as="geometry">
            <mxPoint x="458" y="330" as="targetPoint" />
            <Array as="points">
              <mxPoint x="460" y="416" />
              <mxPoint x="460" y="330" />
              <mxPoint x="458" y="330" />
            </Array>
          </mxGeometry>
        </mxCell>
        <mxCell id="27" value="&lt;b&gt;LGWAN接続ルーター&lt;/b&gt;&lt;br&gt;XXX.XXX.XXX.XXX/24" style="rounded=1;whiteSpace=wrap;html=1;strokeWidth=1;fillColor=none;" parent="26" vertex="1">
          <mxGeometry x="285" y="217" width="158" height="28" as="geometry" />
        </mxCell>
        <mxCell id="28" value="&lt;b&gt;LGWAN用スイッチ&lt;/b&gt;&lt;br&gt;XXX.XXX.XXX.XXX/24" style="rounded=1;whiteSpace=wrap;html=1;strokeWidth=1;fillColor=none;" parent="26" vertex="1">
          <mxGeometry x="285" y="273" width="158" height="28" as="geometry" />
        </mxCell>
        <mxCell id="29" value="&lt;b&gt;内部系Seg&lt;/b&gt;" style="rounded=1;whiteSpace=wrap;html=1;strokeWidth=1;fillColor=none;" parent="26" vertex="1">
          <mxGeometry x="274" y="612" width="124" height="29" as="geometry" />
        </mxCell>
        <mxCell id="30" value="&lt;b&gt;データベースSeg&lt;/b&gt;" style="rounded=1;whiteSpace=wrap;html=1;strokeWidth=1;fillColor=none;" parent="26" vertex="1">
          <mxGeometry x="273" y="722" width="124" height="26" as="geometry" />
        </mxCell>
        <mxCell id="31" value="&lt;b&gt;LGWAN接続ルーター&lt;/b&gt;&lt;br&gt;XXX.XXX.XXX.XXX/24" style="rounded=1;whiteSpace=wrap;html=1;strokeWidth=1;fillColor=none;" parent="26" vertex="1">
          <mxGeometry x="705" y="218" width="158" height="28" as="geometry" />
        </mxCell>
        <mxCell id="32" value="&lt;b&gt;LGWAN用スイッチ&lt;/b&gt;&lt;br&gt;XXX.XXX.XXX.XXX/24" style="rounded=1;whiteSpace=wrap;html=1;strokeWidth=1;fillColor=none;" parent="26" vertex="1">
          <mxGeometry x="705" y="273" width="158" height="28" as="geometry" />
        </mxCell>
        <mxCell id="33" value="&lt;b&gt;LGWAN公開Seg&lt;/b&gt;" style="rounded=1;whiteSpace=wrap;html=1;strokeWidth=1;fillColor=none;" parent="26" vertex="1">
          <mxGeometry x="724" y="330" width="123" height="28" as="geometry" />
        </mxCell>
        <mxCell id="34" value="&lt;b&gt;ゲートウェイSeg&lt;/b&gt;" style="rounded=1;whiteSpace=wrap;html=1;strokeWidth=1;fillColor=none;" parent="26" vertex="1">
          <mxGeometry x="724" y="498" width="123" height="28" as="geometry" />
        </mxCell>
        <mxCell id="35" value="&lt;b&gt;VPN専用Seg&lt;/b&gt;" style="rounded=1;whiteSpace=wrap;html=1;strokeWidth=1;fillColor=none;" parent="26" vertex="1">
          <mxGeometry x="694" y="730" width="123" height="28" as="geometry" />
        </mxCell>
        <mxCell id="36" value="&lt;p style=&quot;line-height: normal ; margin: 0pt 0in ; text-indent: 0in ; direction: ltr ; unicode-bidi: embed ; word-break: normal&quot;&gt;&lt;span style=&quot;font-size: 7pt&quot;&gt;健康かるて &lt;/span&gt;&lt;span style=&quot;font-size: 7pt&quot;&gt;DB SV&lt;/span&gt;&lt;/p&gt;" style="rounded=0;whiteSpace=wrap;html=1;strokeColor=#000000;strokeWidth=1;fillColor=#FFFFFF;" parent="26" vertex="1">
          <mxGeometry x="598" y="530" width="134" height="44" as="geometry" />
        </mxCell>
        <mxCell id="37" value="&lt;p style=&quot;line-height: normal ; margin: 0pt 0in ; text-indent: 0in ; direction: ltr ; unicode-bidi: embed ; word-break: normal&quot;&gt;&lt;span style=&quot;font-size: 7pt&quot;&gt;健康かるて AP&lt;/span&gt;&lt;span style=&quot;font-size: 7pt&quot;&gt;&amp;nbsp;SV&lt;/span&gt;&lt;/p&gt;" style="rounded=0;whiteSpace=wrap;html=1;strokeColor=#000000;strokeWidth=1;fillColor=#FFFFFF;" parent="26" vertex="1">
          <mxGeometry x="598" y="416" width="134" height="44" as="geometry" />
        </mxCell>
        <mxCell id="38" value="&lt;p style=&quot;line-height: normal ; margin: 0pt 0in ; text-indent: 0in ; direction: ltr ; unicode-bidi: embed ; word-break: normal&quot;&gt;&lt;font size=&quot;1&quot;&gt;RSGateway&lt;/font&gt;&lt;/p&gt;" style="rounded=0;whiteSpace=wrap;html=1;strokeColor=#000000;strokeWidth=1;fillColor=#FFFFFF;" parent="26" vertex="1">
          <mxGeometry x="598" y="361" width="134" height="44" as="geometry" />
        </mxCell>
        <mxCell id="39" value="&lt;p style=&quot;line-height: normal ; margin: 0pt 0in ; text-indent: 0in ; direction: ltr ; unicode-bidi: embed ; word-break: normal&quot;&gt;&lt;font size=&quot;1&quot;&gt;予約・勧奨用 AP SV&lt;/font&gt;&lt;/p&gt;" style="rounded=0;whiteSpace=wrap;html=1;strokeColor=#000000;strokeWidth=1;fillColor=#FFFFFF;" parent="26" vertex="1">
          <mxGeometry x="679" y="765" width="134" height="33" as="geometry" />
        </mxCell>
        <mxCell id="40" value="&lt;p style=&quot;line-height: normal ; margin: 0pt 0in ; text-indent: 0in ; direction: ltr ; unicode-bidi: embed ; word-break: normal&quot;&gt;&lt;font size=&quot;1&quot;&gt;予約・勧奨用 DB SV/&lt;br&gt;DB登録 SV File SV&lt;/font&gt;&lt;/p&gt;" style="rounded=0;whiteSpace=wrap;html=1;strokeColor=#000000;strokeWidth=1;fillColor=#FFFFFF;" parent="26" vertex="1">
          <mxGeometry x="95" y="747" width="134" height="44" as="geometry" />
        </mxCell>
        <mxCell id="41" value="&lt;p style=&quot;line-height: normal ; margin: 0pt 0in ; text-indent: 0in ; direction: ltr ; unicode-bidi: embed ; word-break: normal&quot;&gt;&lt;font size=&quot;1&quot;&gt;スマートデリバー AP SV/&lt;br&gt;スマートデリバー DB SV&lt;/font&gt;&lt;/p&gt;" style="rounded=0;whiteSpace=wrap;html=1;strokeColor=#000000;strokeWidth=1;fillColor=#FFFFFF;" parent="26" vertex="1">
          <mxGeometry x="96" y="643" width="134" height="44" as="geometry" />
        </mxCell>
        <mxCell id="42" value="&lt;font style=&quot;font-size: 10px&quot;&gt;&lt;b&gt;利用者団体拠点&lt;/b&gt;&lt;/font&gt;" style="text;html=1;strokeColor=none;fillColor=none;align=center;verticalAlign=middle;whiteSpace=wrap;rounded=0;" parent="26" vertex="1">
          <mxGeometry x="79" y="61" width="80" height="20" as="geometry" />
        </mxCell>
        <mxCell id="43" value="&lt;font style=&quot;font-size: 10px&quot;&gt;&lt;b&gt;Ryobi-IDC&lt;/b&gt;&lt;/font&gt;" style="text;html=1;strokeColor=none;fillColor=none;align=center;verticalAlign=middle;whiteSpace=wrap;rounded=0;" parent="26" vertex="1">
          <mxGeometry x="79" y="180" width="58" height="16" as="geometry" />
        </mxCell>
        <mxCell id="44" value="&lt;font style=&quot;font-size: 11px&quot;&gt;自治体&lt;br&gt;&lt;div&gt;&lt;span&gt;利用者端末&lt;/span&gt;&lt;/div&gt;&lt;/font&gt;" style="text;html=1;strokeColor=none;fillColor=none;align=left;verticalAlign=middle;whiteSpace=wrap;rounded=0;" parent="26" vertex="1">
          <mxGeometry x="113" y="143" width="62" height="20" as="geometry" />
        </mxCell>
        <mxCell id="45" value="&lt;font style=&quot;font-size: 10px&quot;&gt;&lt;b&gt;IDC第3回線&lt;/b&gt;&lt;/font&gt;" style="text;html=1;strokeColor=none;fillColor=none;align=center;verticalAlign=middle;whiteSpace=wrap;rounded=0;" parent="26" vertex="1">
          <mxGeometry x="90.25" y="212" width="60.75" height="16" as="geometry" />
        </mxCell>
        <mxCell id="46" value="&lt;font style=&quot;font-size: 10px&quot;&gt;&lt;b&gt;IDC第2回線&lt;/b&gt;&lt;/font&gt;" style="text;html=1;strokeColor=none;fillColor=none;align=center;verticalAlign=middle;whiteSpace=wrap;rounded=0;" parent="26" vertex="1">
          <mxGeometry x="593" y="211" width="55" height="16" as="geometry" />
        </mxCell>
        <mxCell id="47" value="&lt;font style=&quot;font-size: 21px&quot;&gt;IDCネットワーク構成&lt;/font&gt;" style="text;html=1;strokeColor=none;fillColor=none;align=center;verticalAlign=middle;whiteSpace=wrap;rounded=0;" parent="26" vertex="1">
          <mxGeometry x="15" y="20" width="210" height="16" as="geometry" />
        </mxCell>
        <mxCell id="48" value="&lt;font style=&quot;font-size: 12px&quot;&gt;第2回線第3回線水平連携&lt;/font&gt;" style="text;html=1;strokeColor=none;fillColor=none;align=center;verticalAlign=middle;whiteSpace=wrap;rounded=0;" parent="26" vertex="1">
          <mxGeometry x="618" y="150" width="140" height="16" as="geometry" />
        </mxCell>
        <mxCell id="49" value="&lt;font style=&quot;font-size: 10px&quot;&gt;&lt;b&gt;BPOコンタクトセンター&lt;/b&gt;&lt;/font&gt;" style="text;html=1;strokeColor=none;fillColor=none;align=center;verticalAlign=middle;whiteSpace=wrap;rounded=0;" parent="26" vertex="1">
          <mxGeometry x="1106" y="672" width="120" height="11" as="geometry" />
        </mxCell>
        <mxCell id="50" value="&lt;div style=&quot;text-align: left ; font-size: 11px&quot;&gt;&lt;font style=&quot;font-size: 11px&quot;&gt;コンタクトセンター&lt;/font&gt;&lt;/div&gt;&lt;font style=&quot;font-size: 11px&quot;&gt;&lt;div style=&quot;text-align: left&quot;&gt;利用者端末&lt;/div&gt;&lt;/font&gt;" style="text;html=1;strokeColor=none;fillColor=none;align=center;verticalAlign=middle;whiteSpace=wrap;rounded=0;" parent="26" vertex="1">
          <mxGeometry x="1207" y="736" width="109" height="30" as="geometry" />
        </mxCell>
        <mxCell id="108" style="rounded=0;orthogonalLoop=1;jettySize=auto;html=1;entryX=0;entryY=0.5;entryDx=0;entryDy=0;entryPerimeter=0;strokeColor=#BD331E;strokeWidth=2;endArrow=none;endFill=0;" parent="26" source="146" target="89" edge="1">
          <mxGeometry relative="1" as="geometry">
            <mxPoint x="273" y="665" as="sourcePoint" />
          </mxGeometry>
        </mxCell>
        <mxCell id="168" style="edgeStyle=none;rounded=0;orthogonalLoop=1;jettySize=auto;html=1;sourcePerimeterSpacing=0;endArrow=none;endFill=0;strokeColor=#BD331E;strokeWidth=2;" parent="26" source="79" target="81" edge="1">
          <mxGeometry relative="1" as="geometry" />
        </mxCell>
        <mxCell id="79" value="" style="points=[[0.5,0,0],[1,0.5,0],[0.5,1,0],[0,0.5,0],[0.145,0.145,0],[0.8555,0.145,0],[0.855,0.8555,0],[0.145,0.855,0]];verticalLabelPosition=bottom;html=1;verticalAlign=top;aspect=fixed;align=center;pointerEvents=1;shape=mxgraph.cisco19.rect;prIcon=secure_router;strokeColor=#FFFFFF;fillColor=#26AB56;" parent="26" vertex="1">
          <mxGeometry x="821" y="694" width="42" height="42" as="geometry" />
        </mxCell>
        <mxCell id="120" style="edgeStyle=none;rounded=0;orthogonalLoop=1;jettySize=auto;html=1;endArrow=none;endFill=0;strokeColor=#BD331E;strokeWidth=2;" parent="26" source="81" target="100" edge="1">
          <mxGeometry relative="1" as="geometry" />
        </mxCell>
        <mxCell id="81" value="" style="points=[[0.5,0,0],[1,0.5,0],[0.5,1,0],[0,0.5,0],[0.145,0.145,0],[0.8555,0.145,0],[0.855,0.8555,0],[0.145,0.855,0]];verticalLabelPosition=bottom;html=1;verticalAlign=top;aspect=fixed;align=center;pointerEvents=1;shape=mxgraph.cisco19.rect;prIcon=secure_router;strokeColor=#FFFFFF;fillColor=#26AB56;" parent="26" vertex="1">
          <mxGeometry x="1080" y="694" width="42" height="42" as="geometry" />
        </mxCell>
        <mxCell id="175" style="edgeStyle=none;rounded=0;orthogonalLoop=1;jettySize=auto;html=1;entryX=0.615;entryY=-0.001;entryDx=0;entryDy=0;entryPerimeter=0;sourcePerimeterSpacing=0;endArrow=none;endFill=0;strokeColor=#BD331E;strokeWidth=2;" parent="26" source="83" target="86" edge="1">
          <mxGeometry relative="1" as="geometry">
            <Array as="points">
              <mxPoint x="895" y="102" />
            </Array>
          </mxGeometry>
        </mxCell>
        <mxCell id="83" value="" style="points=[[0.5,0,0],[1,0.5,0],[0.5,1,0],[0,0.5,0],[0.145,0.145,0],[0.8555,0.145,0],[0.855,0.8555,0],[0.145,0.855,0]];verticalLabelPosition=bottom;html=1;verticalAlign=top;aspect=fixed;align=center;pointerEvents=1;shape=mxgraph.cisco19.rect;prIcon=secure_router;strokeColor=#FFFFFF;fillColor=#34A7C9;" parent="26" vertex="1">
          <mxGeometry x="330" y="78" width="42" height="42" as="geometry" />
        </mxCell>
        <mxCell id="154" style="edgeStyle=none;rounded=0;orthogonalLoop=1;jettySize=auto;html=1;entryX=0.5;entryY=0;entryDx=0;entryDy=0;entryPerimeter=0;sourcePerimeterSpacing=0;endArrow=none;endFill=0;strokeColor=#BD331E;strokeWidth=2;" parent="26" source="85" edge="1">
          <mxGeometry relative="1" as="geometry">
            <mxPoint x="466.5" y="500" as="targetPoint" />
          </mxGeometry>
        </mxCell>
        <mxCell id="155" style="edgeStyle=none;rounded=0;orthogonalLoop=1;jettySize=auto;html=1;entryX=0.5;entryY=0;entryDx=0;entryDy=0;entryPerimeter=0;sourcePerimeterSpacing=0;endArrow=none;endFill=0;strokeColor=#BD331E;strokeWidth=2;exitX=0.639;exitY=0.024;exitDx=0;exitDy=0;exitPerimeter=0;" parent="26" source="85" target="86" edge="1">
          <mxGeometry relative="1" as="geometry">
            <Array as="points">
              <mxPoint x="472" y="140" />
              <mxPoint x="890" y="140" />
            </Array>
          </mxGeometry>
        </mxCell>
        <mxCell id="171" style="edgeStyle=none;rounded=0;orthogonalLoop=1;jettySize=auto;html=1;sourcePerimeterSpacing=0;endArrow=none;endFill=0;strokeColor=#BD331E;strokeWidth=2;exitX=0.385;exitY=0.016;exitDx=0;exitDy=0;exitPerimeter=0;" parent="26" source="85" target="170" edge="1">
          <mxGeometry relative="1" as="geometry" />
        </mxCell>
        <mxCell id="85" value="" style="points=[[0.5,0,0],[1,0.5,0],[0.5,1,0],[0,0.5,0],[0.145,0.145,0],[0.8555,0.145,0],[0.855,0.8555,0],[0.145,0.855,0]];verticalLabelPosition=bottom;html=1;verticalAlign=top;aspect=fixed;align=center;pointerEvents=1;shape=mxgraph.cisco19.rect;prIcon=secure_router;strokeColor=#FFFFFF;fillColor=#34A7C9;" parent="26" vertex="1">
          <mxGeometry x="445.5" y="188" width="42" height="42" as="geometry" />
        </mxCell>
        <mxCell id="86" value="" style="points=[[0.5,0,0],[1,0.5,0],[0.5,1,0],[0,0.5,0],[0.145,0.145,0],[0.8555,0.145,0],[0.855,0.8555,0],[0.145,0.855,0]];verticalLabelPosition=bottom;html=1;verticalAlign=top;aspect=fixed;align=center;pointerEvents=1;shape=mxgraph.cisco19.rect;prIcon=secure_router;strokeColor=#FFFFFF;fillColor=#34A7C9;" parent="26" vertex="1">
          <mxGeometry x="869" y="186" width="42" height="42" as="geometry" />
        </mxCell>
        <mxCell id="110" style="edgeStyle=orthogonalEdgeStyle;rounded=0;orthogonalLoop=1;jettySize=auto;html=1;endArrow=none;endFill=0;strokeWidth=2;strokeColor=#BD331E;" parent="26" edge="1">
          <mxGeometry relative="1" as="geometry">
            <Array as="points">
              <mxPoint x="467" y="775" />
            </Array>
            <mxPoint x="467" y="520" as="sourcePoint" />
            <mxPoint x="399" y="775" as="targetPoint" />
          </mxGeometry>
        </mxCell>
        <mxCell id="112" style="edgeStyle=orthogonalEdgeStyle;rounded=0;orthogonalLoop=1;jettySize=auto;html=1;endArrow=none;endFill=0;strokeColor=#BD331E;strokeWidth=2;" parent="26" edge="1">
          <mxGeometry relative="1" as="geometry">
            <Array as="points">
              <mxPoint x="476" y="775" />
              <mxPoint x="532" y="775" />
            </Array>
            <mxPoint x="476" y="530" as="sourcePoint" />
            <mxPoint x="532" y="775.3292682926829" as="targetPoint" />
          </mxGeometry>
        </mxCell>
        <mxCell id="BV9cXCDJLeDw8SgGFLzF-214" style="edgeStyle=orthogonalEdgeStyle;rounded=0;orthogonalLoop=1;jettySize=auto;html=1;entryX=0.25;entryY=1;entryDx=0;entryDy=0;entryPerimeter=0;endArrow=none;endFill=0;strokeColor=#BD331E;strokeWidth=2;" parent="26" source="89" edge="1">
          <mxGeometry relative="1" as="geometry">
            <mxPoint x="457.75" y="535" as="targetPoint" />
          </mxGeometry>
        </mxCell>
        <mxCell id="89" value="" style="points=[[0.015,0.015,0],[0.985,0.015,0],[0.985,0.985,0],[0.015,0.985,0],[0.25,0,0],[0.5,0,0],[0.75,0,0],[1,0.25,0],[1,0.5,0],[1,0.75,0],[0.75,1,0],[0.5,1,0],[0.25,1,0],[0,0.75,0],[0,0.5,0],[0,0.25,0]];verticalLabelPosition=bottom;html=1;verticalAlign=top;aspect=fixed;align=center;pointerEvents=1;shape=mxgraph.cisco19.rect;prIcon=l2_switch;strokeColor=#FFFFFF;fillColor=#34A7C9;" parent="26" vertex="1">
          <mxGeometry x="365" y="647.5" width="35" height="35" as="geometry" />
        </mxCell>
        <mxCell id="111" style="rounded=0;orthogonalLoop=1;jettySize=auto;html=1;endArrow=none;endFill=0;strokeColor=#BD331E;strokeWidth=2;" parent="26" source="90" target="145" edge="1">
          <mxGeometry relative="1" as="geometry">
            <mxPoint x="273" y="768.5" as="targetPoint" />
          </mxGeometry>
        </mxCell>
        <mxCell id="90" value="" style="points=[[0.015,0.015,0],[0.985,0.015,0],[0.985,0.985,0],[0.015,0.985,0],[0.25,0,0],[0.5,0,0],[0.75,0,0],[1,0.25,0],[1,0.5,0],[1,0.75,0],[0.75,1,0],[0.5,1,0],[0.25,1,0],[0,0.75,0],[0,0.5,0],[0,0.25,0]];verticalLabelPosition=bottom;html=1;verticalAlign=top;aspect=fixed;align=center;pointerEvents=1;shape=mxgraph.cisco19.rect;prIcon=l2_switch;strokeColor=#FFFFFF;fillColor=#34A7C9;" parent="26" vertex="1">
          <mxGeometry x="365" y="757" width="35" height="35" as="geometry" />
        </mxCell>
        <mxCell id="118" style="edgeStyle=none;rounded=0;orthogonalLoop=1;jettySize=auto;html=1;endArrow=none;endFill=0;strokeColor=#BD331E;strokeWidth=2;" parent="26" source="92" target="79" edge="1">
          <mxGeometry relative="1" as="geometry" />
        </mxCell>
        <mxCell id="126" style="edgeStyle=none;rounded=0;orthogonalLoop=1;jettySize=auto;html=1;endArrow=none;endFill=0;strokeColor=#BD331E;strokeWidth=2;entryX=0.499;entryY=0.18;entryDx=0;entryDy=0;entryPerimeter=0;" parent="26" source="92" target="106" edge="1">
          <mxGeometry relative="1" as="geometry" />
        </mxCell>
        <mxCell id="127" style="edgeStyle=none;rounded=0;orthogonalLoop=1;jettySize=auto;html=1;entryX=0;entryY=0.5;entryDx=0;entryDy=0;entryPerimeter=0;endArrow=none;endFill=0;strokeColor=#BD331E;strokeWidth=2;" parent="26" source="92" target="79" edge="1">
          <mxGeometry relative="1" as="geometry" />
        </mxCell>
        <mxCell id="92" value="" style="points=[[0.015,0.015,0],[0.985,0.015,0],[0.985,0.985,0],[0.015,0.985,0],[0.25,0,0],[0.5,0,0],[0.75,0,0],[1,0.25,0],[1,0.5,0],[1,0.75,0],[0.75,1,0],[0.5,1,0],[0.25,1,0],[0,0.75,0],[0,0.5,0],[0,0.25,0]];verticalLabelPosition=bottom;html=1;verticalAlign=top;aspect=fixed;align=center;pointerEvents=1;shape=mxgraph.cisco19.rect;prIcon=l2_switch;strokeColor=#FFFFFF;fillColor=#34A7C9;" parent="26" vertex="1">
          <mxGeometry x="483" y="697" width="35" height="35" as="geometry" />
        </mxCell>
        <mxCell id="128" style="edgeStyle=none;rounded=0;orthogonalLoop=1;jettySize=auto;html=1;endArrow=none;endFill=0;strokeColor=#BD331E;strokeWidth=2;exitX=1;exitY=0.5;exitDx=0;exitDy=0;exitPerimeter=0;" parent="26" source="93" edge="1">
          <mxGeometry relative="1" as="geometry">
            <mxPoint x="640" y="773" as="targetPoint" />
          </mxGeometry>
        </mxCell>
        <mxCell id="93" value="" style="points=[[0.015,0.015,0],[0.985,0.015,0],[0.985,0.985,0],[0.015,0.985,0],[0.25,0,0],[0.5,0,0],[0.75,0,0],[1,0.25,0],[1,0.5,0],[1,0.75,0],[0.75,1,0],[0.5,1,0],[0.25,1,0],[0,0.75,0],[0,0.5,0],[0,0.25,0]];verticalLabelPosition=bottom;html=1;verticalAlign=top;aspect=fixed;align=center;pointerEvents=1;shape=mxgraph.cisco19.rect;prIcon=l2_switch;strokeColor=#FFFFFF;fillColor=#34A7C9;" parent="26" vertex="1">
          <mxGeometry x="522.85" y="756" width="35" height="35" as="geometry" />
        </mxCell>
        <mxCell id="143" style="edgeStyle=none;rounded=0;orthogonalLoop=1;jettySize=auto;html=1;sourcePerimeterSpacing=0;endArrow=none;endFill=0;strokeColor=#BD331E;strokeWidth=2;" parent="26" source="94" target="141" edge="1">
          <mxGeometry relative="1" as="geometry" />
        </mxCell>
        <mxCell id="130" style="edgeStyle=none;rounded=0;orthogonalLoop=1;jettySize=auto;html=1;endArrow=none;endFill=0;strokeColor=#BD331E;strokeWidth=2;" parent="26" source="95" target="96" edge="1">
          <mxGeometry relative="1" as="geometry" />
        </mxCell>
        <mxCell id="95" value="" style="points=[[0.015,0.015,0],[0.985,0.015,0],[0.985,0.985,0],[0.015,0.985,0],[0.25,0,0],[0.5,0,0],[0.75,0,0],[1,0.25,0],[1,0.5,0],[1,0.75,0],[0.75,1,0],[0.5,1,0],[0.25,1,0],[0,0.75,0],[0,0.5,0],[0,0.25,0]];verticalLabelPosition=bottom;html=1;verticalAlign=top;aspect=fixed;align=center;pointerEvents=1;shape=mxgraph.cisco19.rect;prIcon=l2_switch;strokeColor=#FFFFFF;fillColor=#34A7C9;" parent="26" vertex="1">
          <mxGeometry x="810" y="365.5" width="35" height="35" as="geometry" />
        </mxCell>
        <mxCell id="131" style="edgeStyle=orthogonalEdgeStyle;rounded=0;orthogonalLoop=1;jettySize=auto;html=1;endArrow=none;endFill=0;strokeColor=#BD331E;strokeWidth=2;" parent="26" source="96" target="94" edge="1">
          <mxGeometry relative="1" as="geometry">
            <Array as="points">
              <mxPoint x="890" y="558" />
              <mxPoint x="834" y="558" />
            </Array>
          </mxGeometry>
        </mxCell>
        <mxCell id="150" style="edgeStyle=none;rounded=0;orthogonalLoop=1;jettySize=auto;html=1;sourcePerimeterSpacing=0;endArrow=none;endFill=0;strokeColor=#BD331E;strokeWidth=2;" parent="26" source="96" target="86" edge="1">
          <mxGeometry relative="1" as="geometry" />
        </mxCell>
        <mxCell id="96" value="" style="points=[[0.015,0.015,0],[0.985,0.015,0],[0.985,0.985,0],[0.015,0.985,0],[0.25,0,0],[0.5,0,0],[0.75,0,0],[1,0.25,0],[1,0.5,0],[1,0.75,0],[0.75,1,0],[0.5,1,0],[0.25,1,0],[0,0.75,0],[0,0.5,0],[0,0.25,0]];verticalLabelPosition=bottom;html=1;verticalAlign=top;aspect=fixed;align=center;pointerEvents=1;shape=mxgraph.cisco19.rect;prIcon=l2_switch;strokeColor=#FFFFFF;fillColor=#34A7C9;" parent="26" vertex="1">
          <mxGeometry x="872.5" y="365.5" width="35" height="35" as="geometry" />
        </mxCell>
        <mxCell id="115" style="edgeStyle=none;rounded=0;orthogonalLoop=1;jettySize=auto;html=1;endArrow=none;endFill=0;strokeColor=#BD331E;strokeWidth=2;" parent="26" source="97" target="98" edge="1">
          <mxGeometry relative="1" as="geometry" />
        </mxCell>
        <mxCell id="166" style="edgeStyle=none;rounded=0;orthogonalLoop=1;jettySize=auto;html=1;sourcePerimeterSpacing=0;endArrow=none;endFill=0;strokeColor=#BD331E;strokeWidth=2;entryX=0.511;entryY=0.375;entryDx=0;entryDy=0;entryPerimeter=0;" parent="26" source="97" target="165" edge="1">
          <mxGeometry relative="1" as="geometry" />
        </mxCell>
        <mxCell id="97" value="" style="points=[[0.015,0.015,0],[0.985,0.015,0],[0.985,0.985,0],[0.015,0.985,0],[0.25,0,0],[0.5,0,0],[0.75,0,0],[1,0.25,0],[1,0.5,0],[1,0.75,0],[0.75,1,0],[0.5,1,0],[0.25,1,0],[0,0.75,0],[0,0.5,0],[0,0.25,0]];verticalLabelPosition=bottom;html=1;verticalAlign=top;aspect=fixed;align=center;pointerEvents=1;shape=mxgraph.cisco19.rect;prIcon=l2_switch;fillColor=#34A7C9;strokeColor=#FFFFFF;" parent="26" vertex="1">
          <mxGeometry x="173" y="81.5" width="35" height="35" as="geometry" />
        </mxCell>
        <mxCell id="116" style="edgeStyle=none;rounded=0;orthogonalLoop=1;jettySize=auto;html=1;entryX=0;entryY=0.5;entryDx=0;entryDy=0;entryPerimeter=0;endArrow=none;endFill=0;strokeColor=#BD331E;strokeWidth=2;" parent="26" source="98" target="83" edge="1">
          <mxGeometry relative="1" as="geometry" />
        </mxCell>
        <mxCell id="98" value="" style="image;html=1;image=img/lib/clip_art/networking/Firewall_02_128x128.png;strokeColor=#FFFFFF;strokeWidth=1;fillColor=#34A7C9;gradientColor=none;flipH=1;" parent="26" vertex="1">
          <mxGeometry x="272" y="74" width="40" height="50" as="geometry" />
        </mxCell>
        <mxCell id="164" style="edgeStyle=none;rounded=0;orthogonalLoop=1;jettySize=auto;html=1;sourcePerimeterSpacing=0;endArrow=none;endFill=0;strokeColor=#BD331E;strokeWidth=2;" parent="26" source="100" target="163" edge="1">
          <mxGeometry relative="1" as="geometry" />
        </mxCell>
        <mxCell id="100" value="" style="image;html=1;image=img/lib/clip_art/networking/Firewall_02_128x128.png;strokeColor=#FFFFFF;strokeWidth=1;fillColor=#34A7C9;gradientColor=none;flipH=1;" parent="26" vertex="1">
          <mxGeometry x="1160" y="690" width="40" height="50" as="geometry" />
        </mxCell>
        <mxCell id="122" value="" style="points=[];aspect=fixed;html=1;align=center;shadow=0;dashed=0;image;image=img/lib/allied_telesis/computer_and_terminals/Server_Desktop.svg;strokeColor=#FFFFFF;strokeWidth=1;fillColor=#34A7C9;gradientColor=none;" parent="26" vertex="1">
          <mxGeometry x="640" y="753" width="39" height="49.43" as="geometry" />
        </mxCell>
        <mxCell id="123" value="" style="points=[];aspect=fixed;html=1;align=center;shadow=0;dashed=0;image;image=img/lib/allied_telesis/computer_and_terminals/Server_Desktop.svg;strokeColor=#FFFFFF;strokeWidth=1;fillColor=#34A7C9;gradientColor=none;" parent="26" vertex="1">
          <mxGeometry x="732" y="413.29" width="39" height="49.43" as="geometry" />
        </mxCell>
        <mxCell id="129" style="edgeStyle=none;rounded=0;orthogonalLoop=1;jettySize=auto;html=1;endArrow=none;endFill=0;strokeColor=#BD331E;strokeWidth=2;" parent="26" source="124" target="95" edge="1">
          <mxGeometry relative="1" as="geometry" />
        </mxCell>
        <mxCell id="124" value="" style="points=[];aspect=fixed;html=1;align=center;shadow=0;dashed=0;image;image=img/lib/allied_telesis/computer_and_terminals/Server_Desktop.svg;strokeColor=#FFFFFF;strokeWidth=1;fillColor=#34A7C9;gradientColor=none;" parent="26" vertex="1">
          <mxGeometry x="733" y="359.57" width="39" height="49.43" as="geometry" />
        </mxCell>
        <mxCell id="135" value="" style="points=[[0.015,0.015,0],[0.985,0.015,0],[0.985,0.985,0],[0.015,0.985,0],[0.25,0,0],[0.5,0,0],[0.75,0,0],[1,0.25,0],[1,0.5,0],[1,0.75,0],[0.75,1,0],[0.5,1,0],[0.25,1,0],[0,0.75,0],[0,0.5,0],[0,0.25,0]];verticalLabelPosition=bottom;html=1;verticalAlign=top;aspect=fixed;align=center;pointerEvents=1;shape=mxgraph.cisco19.rect;prIcon=l2_switch;strokeColor=#FFFFFF;fillColor=#34A7C9;" parent="26" vertex="1">
          <mxGeometry x="377" y="896.7999999999998" width="35" height="35" as="geometry" />
        </mxCell>
        <mxCell id="136" value="" style="points=[];aspect=fixed;html=1;align=center;shadow=0;dashed=0;image;image=img/lib/allied_telesis/computer_and_terminals/Server_Desktop.svg;strokeColor=#FFFFFF;strokeWidth=1;fillColor=#34A7C9;gradientColor=none;" parent="26" vertex="1">
          <mxGeometry x="610" y="889.5849999999999" width="39" height="49.43" as="geometry" />
        </mxCell>
        <mxCell id="137" value="" style="points=[[0.5,0,0],[1,0.5,0],[0.5,1,0],[0,0.5,0],[0.145,0.145,0],[0.8555,0.145,0],[0.855,0.8555,0],[0.145,0.855,0]];verticalLabelPosition=bottom;html=1;verticalAlign=top;aspect=fixed;align=center;pointerEvents=1;shape=mxgraph.cisco19.rect;prIcon=secure_router;strokeColor=#FFFFFF;fillColor=#26AB56;" parent="26" vertex="1">
          <mxGeometry x="302" y="893.3000000000001" width="42" height="42" as="geometry" />
        </mxCell>
        <mxCell id="138" value="" style="image;html=1;image=img/lib/clip_art/networking/Firewall_02_128x128.png;strokeColor=#FFFFFF;strokeWidth=1;fillColor=#34A7C9;gradientColor=none;flipH=1;" parent="26" vertex="1">
          <mxGeometry x="454" y="891.3" width="35.76" height="44.7" as="geometry" />
        </mxCell>
        <mxCell id="139" style="edgeStyle=none;rounded=0;orthogonalLoop=1;jettySize=auto;html=1;endArrow=none;endFill=0;strokeColor=#BD331E;strokeWidth=4;sourcePerimeterSpacing=0;" parent="26" edge="1">
          <mxGeometry relative="1" as="geometry">
            <mxPoint x="671" y="915" as="sourcePoint" />
            <mxPoint x="727" y="915.36" as="targetPoint" />
          </mxGeometry>
        </mxCell>
        <mxCell id="140" value="" style="rounded=0;whiteSpace=wrap;html=1;strokeWidth=1;gradientColor=none;strokeColor=none;fillColor=#A3A3A3;" parent="26" vertex="1">
          <mxGeometry x="761" y="898.24" width="59" height="32.7" as="geometry" />
        </mxCell>
        <mxCell id="141" value="" style="points=[];aspect=fixed;html=1;align=center;shadow=0;dashed=0;image;image=img/lib/allied_telesis/computer_and_terminals/Server_Desktop.svg;strokeColor=#FFFFFF;strokeWidth=1;fillColor=#34A7C9;gradientColor=none;" parent="26" vertex="1">
          <mxGeometry x="733" y="533.29" width="39" height="49.43" as="geometry" />
        </mxCell>
        <mxCell id="145" value="" style="points=[];aspect=fixed;html=1;align=center;shadow=0;dashed=0;image;image=img/lib/allied_telesis/computer_and_terminals/Server_Desktop.svg;strokeColor=#FFFFFF;strokeWidth=1;fillColor=#34A7C9;gradientColor=none;" parent="26" vertex="1">
          <mxGeometry x="229" y="749.79" width="39" height="49.43" as="geometry" />
        </mxCell>
        <mxCell id="146" value="" style="points=[];aspect=fixed;html=1;align=center;shadow=0;dashed=0;image;image=img/lib/allied_telesis/computer_and_terminals/Server_Desktop.svg;strokeColor=#FFFFFF;strokeWidth=1;fillColor=#34A7C9;gradientColor=none;" parent="26" vertex="1">
          <mxGeometry x="230" y="640.28" width="39" height="49.43" as="geometry" />
        </mxCell>
        <mxCell id="99" value="" style="image;html=1;image=img/lib/clip_art/networking/Firewall_02_128x128.png;strokeColor=#FFFFFF;strokeWidth=1;fillColor=#34A7C9;gradientColor=none;flipH=1;" parent="26" vertex="1">
          <mxGeometry x="870" y="290" width="40" height="50" as="geometry" />
        </mxCell>
        <mxCell id="156" value="" style="shadow=0;dashed=0;html=1;strokeColor=none;labelPosition=center;verticalLabelPosition=bottom;verticalAlign=top;outlineConnect=0;align=center;shape=mxgraph.office.databases.database_mini_2;fillColor=#2072B8;" parent="26" vertex="1">
          <mxGeometry x="269" y="667" width="20.83" height="25" as="geometry" />
        </mxCell>
        <mxCell id="157" value="" style="shadow=0;dashed=0;html=1;strokeColor=none;labelPosition=center;verticalLabelPosition=bottom;verticalAlign=top;outlineConnect=0;align=center;shape=mxgraph.office.databases.database_mini_2;fillColor=#2072B8;" parent="26" vertex="1">
          <mxGeometry x="268" y="776" width="20.83" height="25" as="geometry" />
        </mxCell>
        <mxCell id="158" value="" style="shadow=0;dashed=0;html=1;strokeColor=none;labelPosition=center;verticalLabelPosition=bottom;verticalAlign=top;outlineConnect=0;align=center;shape=mxgraph.office.databases.database_mini_2;fillColor=#2072B8;" parent="26" vertex="1">
          <mxGeometry x="772" y="560" width="20.83" height="25" as="geometry" />
        </mxCell>
        <mxCell id="159" value="" style="points=[[0.5,0,0],[1,0.5,0],[0.5,1,0],[0,0.5,0],[0.145,0.145,0],[0.8555,0.145,0],[0.855,0.8555,0],[0.145,0.855,0]];verticalLabelPosition=bottom;html=1;verticalAlign=top;aspect=fixed;align=center;pointerEvents=1;shape=mxgraph.cisco19.rect;prIcon=secure_router;strokeColor=#FFFFFF;fillColor=#34A7C9;" parent="26" vertex="1">
          <mxGeometry x="142" y="894.6499999999999" width="42" height="42" as="geometry" />
        </mxCell>
        <mxCell id="161" value="" style="points=[];aspect=fixed;html=1;align=center;shadow=0;dashed=0;image;image=img/lib/allied_telesis/computer_and_terminals/Personal_Computer.svg;strokeColor=#FFFFFF;strokeWidth=1;fillColor=#A3A3A3;gradientColor=none;" parent="26" vertex="1">
          <mxGeometry x="541.27" y="891.9249999999996" width="33.45" height="45.33" as="geometry" />
        </mxCell>
        <mxCell id="163" value="" style="points=[];aspect=fixed;html=1;align=center;shadow=0;dashed=0;image;image=img/lib/allied_telesis/computer_and_terminals/Personal_Computer.svg;strokeColor=#FFFFFF;strokeWidth=1;fillColor=#A3A3A3;gradientColor=none;" parent="26" vertex="1">
          <mxGeometry x="1250" y="692.34" width="33.45" height="45.33" as="geometry" />
        </mxCell>
        <mxCell id="165" value="" style="points=[];aspect=fixed;html=1;align=center;shadow=0;dashed=0;image;image=img/lib/allied_telesis/computer_and_terminals/Personal_Computer.svg;strokeColor=#FFFFFF;strokeWidth=1;fillColor=#A3A3A3;gradientColor=none;" parent="26" vertex="1">
          <mxGeometry x="172.99999999999994" y="123.67" width="33.45" height="45.33" as="geometry" />
        </mxCell>
        <mxCell id="167" value="VPN" style="ellipse;shape=cloud;whiteSpace=wrap;html=1;align=center;strokeWidth=1;gradientColor=none;fillColor=#CCCCCC;" parent="26" vertex="1">
          <mxGeometry x="980" y="690.01" width="83.33" height="50" as="geometry" />
        </mxCell>
        <mxCell id="170" value="LGWAN" style="ellipse;shape=cloud;whiteSpace=wrap;html=1;align=center;strokeWidth=1;gradientColor=none;fillColor=#fcd5b5;" parent="26" vertex="1">
          <mxGeometry x="408" y="74" width="107" height="50" as="geometry" />
        </mxCell>
        <mxCell id="94" value="" style="points=[[0.015,0.015,0],[0.985,0.015,0],[0.985,0.985,0],[0.015,0.985,0],[0.25,0,0],[0.5,0,0],[0.75,0,0],[1,0.25,0],[1,0.5,0],[1,0.75,0],[0.75,1,0],[0.5,1,0],[0.25,1,0],[0,0.75,0],[0,0.5,0],[0,0.25,0]];verticalLabelPosition=bottom;html=1;verticalAlign=top;aspect=fixed;align=center;pointerEvents=1;shape=mxgraph.cisco19.rect;prIcon=l2_switch;strokeColor=#FFFFFF;fillColor=#34A7C9;" parent="26" vertex="1">
          <mxGeometry x="813" y="540.5" width="35" height="35" as="geometry" />
        </mxCell>
        <mxCell id="176" value="&lt;b&gt;&lt;font style=&quot;font-size: 13px&quot;&gt;記号&lt;/font&gt;&lt;/b&gt;" style="text;html=1;strokeColor=none;fillColor=none;align=center;verticalAlign=middle;whiteSpace=wrap;rounded=0;" parent="26" vertex="1">
          <mxGeometry x="79" y="893.3" width="38" height="16" as="geometry" />
        </mxCell>
        <mxCell id="177" value="&lt;font style=&quot;font-size: 9px&quot;&gt;LGWAN接続装置&lt;/font&gt;" style="text;html=1;strokeColor=none;fillColor=none;align=center;verticalAlign=middle;whiteSpace=wrap;rounded=0;" parent="26" vertex="1">
          <mxGeometry x="120" y="937.5499999999996" width="84" height="16" as="geometry" />
        </mxCell>
        <mxCell id="178" value="&lt;font style=&quot;font-size: 9px&quot;&gt;VPNルータ&lt;/font&gt;" style="text;html=1;strokeColor=none;fillColor=none;align=center;verticalAlign=middle;whiteSpace=wrap;rounded=0;" parent="26" vertex="1">
          <mxGeometry x="296.25" y="937.5499999999997" width="53.5" height="16" as="geometry" />
        </mxCell>
        <mxCell id="179" value="&lt;font style=&quot;font-size: 9px&quot;&gt;L2スイッチ&lt;/font&gt;" style="text;html=1;strokeColor=none;fillColor=none;align=center;verticalAlign=middle;whiteSpace=wrap;rounded=0;" parent="26" vertex="1">
          <mxGeometry x="360" y="937.55" width="59.75" height="16" as="geometry" />
        </mxCell>
        <mxCell id="180" value="&lt;font style=&quot;font-size: 9px&quot;&gt;ファイヤーウォール&lt;/font&gt;" style="text;html=1;strokeColor=none;fillColor=none;align=center;verticalAlign=middle;whiteSpace=wrap;rounded=0;" parent="26" vertex="1">
          <mxGeometry x="420" y="937.55" width="100" height="16" as="geometry" />
        </mxCell>
        <mxCell id="181" value="&lt;font style=&quot;font-size: 9px&quot;&gt;クライアント&lt;/font&gt;" style="text;html=1;strokeColor=none;fillColor=none;align=center;verticalAlign=middle;whiteSpace=wrap;rounded=0;" parent="26" vertex="1">
          <mxGeometry x="528.99" y="937.55" width="71.01" height="16" as="geometry" />
        </mxCell>
        <mxCell id="182" value="&lt;font style=&quot;font-size: 9px&quot;&gt;サーバ&lt;/font&gt;" style="text;html=1;strokeColor=none;fillColor=none;align=center;verticalAlign=middle;whiteSpace=wrap;rounded=0;" parent="26" vertex="1">
          <mxGeometry x="612.5" y="937.5499999999997" width="34" height="16" as="geometry" />
        </mxCell>
        <mxCell id="183" value="&lt;font style=&quot;font-size: 9px&quot;&gt;ケーブル&lt;/font&gt;" style="text;html=1;strokeColor=none;fillColor=none;align=center;verticalAlign=middle;whiteSpace=wrap;rounded=0;" parent="26" vertex="1">
          <mxGeometry x="673.83" y="937.5499999999997" width="50" height="16" as="geometry" />
        </mxCell>
        <mxCell id="184" value="&lt;font style=&quot;font-size: 9px&quot;&gt;VLANセグメント&lt;/font&gt;" style="text;html=1;strokeColor=none;fillColor=none;align=center;verticalAlign=middle;whiteSpace=wrap;rounded=0;" parent="26" vertex="1">
          <mxGeometry x="748.75" y="937.5499999999996" width="83.5" height="16" as="geometry" />
        </mxCell>
        <mxCell id="BV9cXCDJLeDw8SgGFLzF-187" value="&lt;b&gt;AP-Seg&lt;/b&gt;" style="rounded=1;whiteSpace=wrap;html=1;strokeWidth=1;fillColor=none;" parent="26" vertex="1">
          <mxGeometry x="275" y="465" width="123" height="28" as="geometry" />
        </mxCell>
        <mxCell id="BV9cXCDJLeDw8SgGFLzF-192" value="" style="shadow=0;dashed=0;html=1;strokeColor=none;labelPosition=center;verticalLabelPosition=bottom;verticalAlign=top;outlineConnect=0;align=center;shape=mxgraph.office.databases.database_mini_2;fillColor=#2072B8;" parent="26" vertex="1">
          <mxGeometry x="273.75" y="515.5" width="20.83" height="25" as="geometry" />
        </mxCell>
        <mxCell id="BV9cXCDJLeDw8SgGFLzF-194" value="&lt;b&gt;WEB-Seg&lt;/b&gt;" style="rounded=1;whiteSpace=wrap;html=1;strokeWidth=1;fillColor=none;" parent="26" vertex="1">
          <mxGeometry x="275" y="355" width="123" height="28" as="geometry" />
        </mxCell>
        <mxCell id="BV9cXCDJLeDw8SgGFLzF-195" value="&lt;p style=&quot;line-height: normal ; margin: 0pt 0in ; text-indent: 0in ; direction: ltr ; unicode-bidi: embed ; word-break: normal&quot;&gt;&lt;font size=&quot;1&quot;&gt;Web SV&lt;/font&gt;&lt;/p&gt;" style="rounded=0;whiteSpace=wrap;html=1;strokeColor=#000000;strokeWidth=1;fillColor=#FFFFFF;" parent="26" vertex="1">
          <mxGeometry x="100.75" y="396" width="134" height="44" as="geometry" />
        </mxCell>
        <mxCell id="BV9cXCDJLeDw8SgGFLzF-242" style="edgeStyle=none;rounded=0;orthogonalLoop=1;jettySize=auto;html=1;endArrow=none;endFill=0;strokeColor=#BD331E;strokeWidth=2;" parent="26" source="BV9cXCDJLeDw8SgGFLzF-196" target="BV9cXCDJLeDw8SgGFLzF-197" edge="1">
          <mxGeometry relative="1" as="geometry" />
        </mxCell>
        <mxCell id="BV9cXCDJLeDw8SgGFLzF-196" value="" style="points=[];aspect=fixed;html=1;align=center;shadow=0;dashed=0;image;image=img/lib/allied_telesis/computer_and_terminals/Server_Desktop.svg;strokeColor=#FFFFFF;strokeWidth=1;fillColor=#34A7C9;gradientColor=none;" parent="26" vertex="1">
          <mxGeometry x="235" y="390.57" width="39" height="49.43" as="geometry" />
        </mxCell>
        <mxCell id="BV9cXCDJLeDw8SgGFLzF-241" style="edgeStyle=none;rounded=0;orthogonalLoop=1;jettySize=auto;html=1;endArrow=none;endFill=0;strokeColor=#BD331E;strokeWidth=2;" parent="26" source="BV9cXCDJLeDw8SgGFLzF-197" target="BV9cXCDJLeDw8SgGFLzF-213" edge="1">
          <mxGeometry relative="1" as="geometry" />
        </mxCell>
        <mxCell id="BV9cXCDJLeDw8SgGFLzF-197" value="" style="points=[[0.015,0.015,0],[0.985,0.015,0],[0.985,0.985,0],[0.015,0.985,0],[0.25,0,0],[0.5,0,0],[0.75,0,0],[1,0.25,0],[1,0.5,0],[1,0.75,0],[0.75,1,0],[0.5,1,0],[0.25,1,0],[0,0.75,0],[0,0.5,0],[0,0.25,0]];verticalLabelPosition=bottom;html=1;verticalAlign=top;aspect=fixed;align=center;pointerEvents=1;shape=mxgraph.cisco19.rect;prIcon=l2_switch;strokeColor=#FFFFFF;fillColor=#34A7C9;" parent="26" vertex="1">
          <mxGeometry x="365" y="398.5" width="35" height="35" as="geometry" />
        </mxCell>
        <mxCell id="BV9cXCDJLeDw8SgGFLzF-225" style="edgeStyle=none;rounded=0;orthogonalLoop=1;jettySize=auto;html=1;entryX=1;entryY=0.5;entryDx=0;entryDy=0;endArrow=none;endFill=0;strokeColor=#BD331E;strokeWidth=2;" parent="26" source="BV9cXCDJLeDw8SgGFLzF-222" target="BV9cXCDJLeDw8SgGFLzF-224" edge="1">
          <mxGeometry relative="1" as="geometry" />
        </mxCell>
        <mxCell id="BV9cXCDJLeDw8SgGFLzF-239" style="edgeStyle=none;rounded=0;orthogonalLoop=1;jettySize=auto;html=1;entryX=0.968;entryY=0.349;entryDx=0;entryDy=0;entryPerimeter=0;endArrow=none;endFill=0;strokeColor=#BD331E;strokeWidth=2;" parent="26" source="BV9cXCDJLeDw8SgGFLzF-222" target="106" edge="1">
          <mxGeometry relative="1" as="geometry" />
        </mxCell>
        <mxCell id="BV9cXCDJLeDw8SgGFLzF-222" value="" style="points=[[0.5,0,0],[1,0.5,0],[0.5,1,0],[0,0.5,0],[0.145,0.145,0],[0.8555,0.145,0],[0.855,0.8555,0],[0.145,0.855,0]];verticalLabelPosition=bottom;html=1;verticalAlign=top;aspect=fixed;align=center;pointerEvents=1;shape=mxgraph.cisco19.rect;prIcon=secure_router;strokeColor=#FFFFFF;fillColor=#E3B330;" parent="26" vertex="1">
          <mxGeometry x="60" y="306.0000000000002" width="42" height="42" as="geometry" />
        </mxCell>
        <mxCell id="BV9cXCDJLeDw8SgGFLzF-224" value="" style="shape=sumEllipse;perimeter=ellipsePerimeter;whiteSpace=wrap;html=1;backgroundOutline=1;strokeColor=#000000;strokeWidth=2;align=left;fillColor=none;" parent="26" vertex="1">
          <mxGeometry x="-42" y="306" width="42" height="42" as="geometry" />
        </mxCell>
        <mxCell id="107" value="" style="group;rotation=0;" parent="26" vertex="1" connectable="0">
          <mxGeometry x="447" y="300" width="75.85" height="59.41" as="geometry" />
        </mxCell>
        <mxCell id="105" value="" style="image;html=1;image=img/lib/clip_art/networking/Firewall_02_128x128.png;strokeColor=#FFFFFF;strokeWidth=1;fillColor=#34A7C9;gradientColor=none;flipH=1;rotation=0;" parent="107" vertex="1">
          <mxGeometry y="1" width="44.2919708029197" height="49.92436974789916" as="geometry" />
        </mxCell>
        <mxCell id="106" value="" style="image;html=1;image=img/lib/clip_art/networking/Firewall_02_128x128.png;strokeColor=#FFFFFF;strokeWidth=1;fillColor=#34A7C9;gradientColor=none;flipH=0;flipV=1;direction=west;rotation=0;" parent="107" vertex="1">
          <mxGeometry x="31" y="11" width="44.2919708029197" height="49.92436974789916" as="geometry" />
        </mxCell>
        <mxCell id="BV9cXCDJLeDw8SgGFLzF-243" value="" style="points=[[0.015,0.015,0],[0.985,0.015,0],[0.985,0.985,0],[0.015,0.985,0],[0.25,0,0],[0.5,0,0],[0.75,0,0],[1,0.25,0],[1,0.5,0],[1,0.75,0],[0.75,1,0],[0.5,1,0],[0.25,1,0],[0,0.75,0],[0,0.5,0],[0,0.25,0]];verticalLabelPosition=bottom;html=1;verticalAlign=top;aspect=fixed;align=center;pointerEvents=1;shape=mxgraph.cisco19.rect;prIcon=l2_switch;strokeColor=#FFFFFF;fillColor=#34A7C9;" parent="26" vertex="1">
          <mxGeometry x="449" y="500" width="35" height="35" as="geometry" />
        </mxCell>
        <mxCell id="BV9cXCDJLeDw8SgGFLzF-190" value="" style="points=[];aspect=fixed;html=1;align=center;shadow=0;dashed=0;image;image=img/lib/allied_telesis/computer_and_terminals/Server_Desktop.svg;strokeColor=#FFFFFF;strokeWidth=1;fillColor=#34A7C9;gradientColor=none;" parent="26" vertex="1">
          <mxGeometry x="234.75" y="548.29" width="39" height="49.43" as="geometry" />
        </mxCell>
        <mxCell id="BV9cXCDJLeDw8SgGFLzF-246" value="&lt;p style=&quot;line-height: normal ; margin: 0pt 0in ; text-indent: 0in ; direction: ltr ; unicode-bidi: embed ; word-break: normal&quot;&gt;&lt;span style=&quot;font-size: 7pt&quot;&gt;AP&lt;/span&gt;&lt;span style=&quot;font-size: 7pt&quot;&gt;&amp;nbsp;SV&lt;/span&gt;&lt;/p&gt;" style="rounded=0;whiteSpace=wrap;html=1;strokeColor=#000000;strokeWidth=1;fillColor=#FFFFFF;" parent="26" vertex="1">
          <mxGeometry x="100" y="551" width="134" height="44" as="geometry" />
        </mxCell>
        <mxCell id="BV9cXCDJLeDw8SgGFLzF-247" value="&lt;p style=&quot;line-height: normal ; margin: 0pt 0in ; text-indent: 0in ; direction: ltr ; unicode-bidi: embed ; word-break: normal&quot;&gt;&lt;font size=&quot;1&quot;&gt;DB SV&lt;/font&gt;&lt;/p&gt;" style="rounded=0;whiteSpace=wrap;html=1;strokeColor=#000000;strokeWidth=1;fillColor=#FFFFFF;" parent="26" vertex="1">
          <mxGeometry x="100" y="496" width="134" height="44" as="geometry" />
        </mxCell>
        <mxCell id="BV9cXCDJLeDw8SgGFLzF-248" style="rounded=0;orthogonalLoop=1;jettySize=auto;html=1;entryX=0;entryY=0.5;entryDx=0;entryDy=0;entryPerimeter=0;endArrow=none;endFill=0;strokeColor=#BD331E;strokeWidth=2;" parent="26" edge="1">
          <mxGeometry relative="1" as="geometry">
            <mxPoint x="400" y="517.5" as="sourcePoint" />
            <mxPoint x="449" y="517.5" as="targetPoint" />
          </mxGeometry>
        </mxCell>
        <mxCell id="BV9cXCDJLeDw8SgGFLzF-249" style="edgeStyle=orthogonalEdgeStyle;rounded=0;orthogonalLoop=1;jettySize=auto;html=1;endArrow=none;endFill=0;strokeColor=#BD331E;strokeWidth=2;" parent="26" edge="1">
          <mxGeometry relative="1" as="geometry">
            <mxPoint x="366" y="512" as="sourcePoint" />
            <mxPoint x="272" y="512.0285714285715" as="targetPoint" />
            <Array as="points">
              <mxPoint x="300" y="512" />
              <mxPoint x="300" y="512" />
            </Array>
          </mxGeometry>
        </mxCell>
        <mxCell id="BV9cXCDJLeDw8SgGFLzF-250" style="edgeStyle=orthogonalEdgeStyle;rounded=0;orthogonalLoop=1;jettySize=auto;html=1;entryX=0.986;entryY=0.48;entryDx=0;entryDy=0;entryPerimeter=0;endArrow=none;endFill=0;strokeColor=#BD331E;strokeWidth=2;" parent="26" edge="1">
          <mxGeometry relative="1" as="geometry">
            <mxPoint x="365" y="520.0285714285715" as="sourcePoint" />
            <mxPoint x="273.20399999999995" y="572.0164" as="targetPoint" />
            <Array as="points">
              <mxPoint x="330" y="520" />
              <mxPoint x="330" y="572" />
            </Array>
          </mxGeometry>
        </mxCell>
        <mxCell id="BV9cXCDJLeDw8SgGFLzF-251" value="" style="points=[[0.015,0.015,0],[0.985,0.015,0],[0.985,0.985,0],[0.015,0.985,0],[0.25,0,0],[0.5,0,0],[0.75,0,0],[1,0.25,0],[1,0.5,0],[1,0.75,0],[0.75,1,0],[0.5,1,0],[0.25,1,0],[0,0.75,0],[0,0.5,0],[0,0.25,0]];verticalLabelPosition=bottom;html=1;verticalAlign=top;aspect=fixed;align=center;pointerEvents=1;shape=mxgraph.cisco19.rect;prIcon=l2_switch;strokeColor=#FFFFFF;fillColor=#34A7C9;" parent="26" vertex="1">
          <mxGeometry x="365" y="500" width="35" height="35" as="geometry" />
        </mxCell>
        <mxCell id="BV9cXCDJLeDw8SgGFLzF-191" value="" style="points=[];aspect=fixed;html=1;align=center;shadow=0;dashed=0;image;image=img/lib/allied_telesis/computer_and_terminals/Server_Desktop.svg;strokeColor=#FFFFFF;strokeWidth=1;fillColor=#34A7C9;gradientColor=none;" parent="26" vertex="1">
          <mxGeometry x="234.75" y="494.57" width="39" height="49.43" as="geometry" />
        </mxCell>
        <mxCell id="dhcanVTk0tnlQrvAcQq9-184" value="&lt;font style=&quot;font-size: 10px&quot;&gt;&lt;b&gt;インターネット&lt;br&gt;&lt;/b&gt;&lt;/font&gt;" style="text;html=1;strokeColor=none;fillColor=none;align=center;verticalAlign=middle;whiteSpace=wrap;rounded=0;" parent="26" vertex="1">
          <mxGeometry x="-22" y="360" width="80" height="16" as="geometry" />
        </mxCell>
        <mxCell id="dhcanVTk0tnlQrvAcQq9-185" style="edgeStyle=orthogonalEdgeStyle;rounded=0;orthogonalLoop=1;jettySize=auto;html=1;entryX=0.5;entryY=1;entryDx=0;entryDy=0;" parent="26" edge="1">
          <mxGeometry relative="1" as="geometry">
            <mxPoint x="-19" y="368.0000000000002" as="sourcePoint" />
            <mxPoint x="-30" y="348.0000000000002" as="targetPoint" />
            <Array as="points">
              <mxPoint x="-30" y="368" />
            </Array>
          </mxGeometry>
        </mxCell>
        <mxCell id="U9_61oKRmx1zy_uCsucZ-187" value="今回追加となる部分" style="text;html=1;strokeColor=#b85450;fillColor=#f8cecc;align=center;verticalAlign=middle;whiteSpace=wrap;rounded=0;fontSize=15;" parent="26" vertex="1">
          <mxGeometry x="-70" y="574" width="140" height="16" as="geometry" />
        </mxCell>
        <mxCell id="U9_61oKRmx1zy_uCsucZ-185" value="" style="rounded=0;whiteSpace=wrap;html=1;gradientColor=#d5739d;fillColor=none;strokeColor=#FF3399;strokeWidth=3;" parent="26" vertex="1">
          <mxGeometry x="-90" y="300" width="550" height="310" as="geometry" />
        </mxCell>
      </root>
    </mxGraphModel>
  </diagram>
</mxfile>
